# xmcd
#
# Track frame offsets:
#	150
#	15010
#	29325
#	50130
#	64838
#	79130
#	94238
#	109358
#	129315
#	143623
#
# Disc length: 2106 seconds
# Revision: 0
# Processed by: cddbd v1.5.2PL0 Copyright (c) Steve Scherf et al.
# Submitted via: dBpowerAMP V12.0
#
DISCID=7f08380a
DTITLE=Bellamy Brothers, The - Rebels Without A Clue
DYEAR=1988
DGENRE=Country
TTITLE0=Rebels Without A Clue
TTITLE1=I'll Help You Hurt Him
TTITLE2=The Fountain Of Middle Age
TTITLE3=Stayin' In Love
TTITLE4=Get Your Priorities In Line
TTITLE5=Big Love
TTITLE6=When The Music Meant Everything
TTITLE7=The Courthouse
TTITLE8=The Andy Griffith Show
TTITLE9=A Little Naive
EXTD=
EXTT0=
EXTT1=
EXTT2=
EXTT3=
EXTT4=
EXTT5=
EXTT6=
EXTT7=
EXTT8=
EXTT9=
PLAYORDER=
